#N canvas 703 370 1088 597 12;
#X obj 137 13 netreceive -b -u 8000;
#X obj 137 38 oscparse;
#X obj 137 63 list trim;
#X obj 711 53 hsl 128 15 0 127 0 0 empty empty empty -2 -8 0 10 -262144
-1 -1 0 1;
#X obj 708 73 t f f;
#X floatatom 713 197 5 0 0 0 - - -;
#X obj 713 116 >;
#X obj 713 141 * 2;
#X obj 713 166 - 1;
#X obj 713 267 +;
#X msg 795 223 50;
#X floatatom 713 331 5 0 0 0 - - -;
#X obj 772 265 f;
#X obj 713 292 clip 0 100;
#X obj 115 386 f;
#X obj 56 439 clip 0 100;
#X obj 56 388 + 50;
#X obj 56 515 print VALUE1;
#X obj 227 387 f;
#X obj 168 414 clip 0 100;
#X obj 168 389 + 50;
#X obj 168 516 print VALUE2;
#X obj 137 101 route encoder_1 switch_1;
#X obj 56 308 vs.gate4, f 12;
#X obj 219 130 + 1;
#X obj 328 387 f;
#X obj 269 440 clip 0 100;
#X obj 269 389 + 50;
#X obj 440 388 f;
#X obj 381 415 clip 0 100;
#X obj 381 390 + 50;
#X obj 269 516 print VALUE3;
#X obj 381 517 print VALUE4;
#X connect 0 0 1 0;
#X connect 1 0 2 0;
#X connect 2 0 22 0;
#X connect 3 0 4 0;
#X connect 4 0 6 1;
#X connect 4 1 6 0;
#X connect 5 0 9 0;
#X connect 6 0 7 0;
#X connect 7 0 8 0;
#X connect 8 0 5 0;
#X connect 9 0 13 0;
#X connect 10 0 9 1;
#X connect 12 0 9 1;
#X connect 13 0 11 0;
#X connect 13 0 12 0;
#X connect 14 0 16 1;
#X connect 15 0 14 0;
#X connect 15 0 17 0;
#X connect 16 0 15 0;
#X connect 18 0 20 1;
#X connect 19 0 18 0;
#X connect 19 0 21 0;
#X connect 20 0 19 0;
#X connect 22 0 23 1;
#X connect 22 1 24 0;
#X connect 23 0 16 0;
#X connect 23 1 20 0;
#X connect 23 2 27 0;
#X connect 23 3 30 0;
#X connect 24 0 23 0;
#X connect 25 0 27 1;
#X connect 26 0 25 0;
#X connect 26 0 31 0;
#X connect 27 0 26 0;
#X connect 28 0 30 1;
#X connect 29 0 28 0;
#X connect 29 0 32 0;
#X connect 30 0 29 0;
