#N canvas 634 77 1092 925 16;
#X obj 318 473 & 1;
#X obj 168 303 pack 0 0;
#X obj 48 516 unpack 0 0;
#X obj 218 373 unpack 0 0;
#X obj 368 503 !=;
#X obj 318 423 t f f b, f 11;
#X obj 218 661 ==;
#X obj 218 694 spigot;
#X obj 168 336 t a a;
#X obj 88 556 spigot;
#X text 435 273 CLK;
#X obj 218 727 sel 0 1;
#X obj 218 760 f -1;
#X obj 288 761 f 1;
#X obj 591 298 s bela_setDigital;
#X obj 591 95 loadbang;
#X text 140 242 DT;
#X obj 218 799 outlet DIRECTION;
#X obj 425 461 v \$0-prevCLK;
#X obj 88 586 v \$0-prevCLK;
#X obj 591 143 f \$1;
#X obj 643 143 f \$2;
#X obj 245 271 r bela_digitalIn\$1;
#X obj 168 243 r bela_digitalIn\$2;
#X msg 591 225 in \$1 message;
#X msg 643 255 in \$1 message;
#X connect 0 0 6 1;
#X connect 1 0 8 0;
#X connect 2 1 9 0;
#X connect 3 0 6 0;
#X connect 3 1 5 0;
#X connect 4 0 7 1;
#X connect 4 0 9 1;
#X connect 5 0 0 0;
#X connect 5 1 4 0;
#X connect 5 2 18 0;
#X connect 6 0 7 0;
#X connect 7 0 11 0;
#X connect 8 0 2 0;
#X connect 8 1 3 0;
#X connect 9 0 19 0;
#X connect 11 0 12 0;
#X connect 11 1 13 0;
#X connect 12 0 17 0;
#X connect 13 0 17 0;
#X connect 15 0 20 0;
#X connect 15 0 21 0;
#X connect 18 0 4 1;
#X connect 20 0 24 0;
#X connect 21 0 25 0;
#X connect 22 0 1 1;
#X connect 23 0 1 0;
#X connect 24 0 14 0;
#X connect 25 0 14 0;
